<?xml version="1.0" encoding="UTF-8"?>
<svg version="1.1" xmlns="http://www.w3.org/2000/svg" width="578" height="166">
<path d="M0 0 C190.74 0 381.48 0 578 0 C578 54.78 578 109.56 578 166 C387.26 166 196.52 166 0 166 C0 111.22 0 56.44 0 0 Z " fill="#FEFEFE" transform="translate(0,0)"/>
<path d="M0 0 C8.43407557 4.61462558 14.67018192 10.48580507 18.52734375 19.3828125 C18.83404565 21.13024015 19.12604984 22.88031967 19.40234375 24.6328125 C19.9118906 27.21298747 19.9118906 27.21298747 21.52734375 29.3828125 C24.79455511 31.00349701 27.94613009 32.16319852 31.40527344 33.27319336 C41.00629948 36.36886144 46.84666484 42.48806441 51.52734375 51.3828125 C55.40024164 60.53162035 55.7372331 69.46502406 52.5625 78.87109375 C48.28638655 89.24671996 42.16025291 96.40489044 32.02734375 101.3203125 C22.66717124 104.87765079 12.55141706 104.9125799 3.15234375 101.4453125 C-7.62111103 96.20496357 -14.24972974 88.54006483 -18.47265625 77.3828125 C-19.69197387 72.98298568 -19.58779369 68.60118167 -19.53515625 64.0703125 C-19.53064453 63.32974609 -19.52613281 62.58917969 -19.52148438 61.82617188 C-19.509778 60.01168351 -19.49184523 58.19723716 -19.47265625 56.3828125 C-20.13265625 60.6728125 -20.79265625 64.9628125 -21.47265625 69.3828125 C-30.77846964 69.03815274 -37.48391839 64.80409159 -43.84765625 58.1328125 C-51.26022745 49.26767684 -53.32796028 38.68837673 -52.47265625 27.3828125 C-50.53774503 17.89108265 -45.0586935 9.36719122 -37.47265625 3.3828125 C-25.95047383 -3.40422646 -12.58565018 -5.41277587 0 0 Z " fill="#FFEFE9" transform="translate(497.47265625,34.6171875)"/>
<path d="M0 0 C5.94 0 11.88 0 18 0 C18 23.43 18 46.86 18 71 C12.39 71 6.78 71 1 71 C1 70.01 1 69.02 1 68 C-0.3921875 68.99 -0.3921875 68.99 -1.8125 70 C-6.69665072 72.7895251 -11.52348478 72.67938615 -17 72 C-21.77003758 70.32165345 -24.63398811 67.72990506 -28 64 C-28.556875 63.401875 -29.11375 62.80375 -29.6875 62.1875 C-33.45120904 55.9146516 -33.83048527 48.11989204 -33 41 C-30.95221153 34.17051989 -27.61119915 28.89439938 -21.8125 24.6875 C-17.60502698 22.47114376 -13.65507489 22.29393926 -9 23 C-6.47712961 23.79468024 -4.37389804 24.78882753 -2 26 C-1.34 26.33 -0.68 26.66 0 27 C0 18.09 0 9.18 0 0 Z " fill="#0D1677" transform="translate(213,42)"/>
<path d="M0 0 C34 0 34 0 43 4 C49.84047099 10.84047099 51.43498066 16.39891056 51.43823242 25.96777344 C51.24182829 33.51592177 48.84491359 37.22995256 43.625 42.3125 C37.46974005 46.26945283 32.74749051 47.44182931 25.5625 47.1875 C23.066875 47.125625 20.57125 47.06375 18 47 C18 53.93 18 60.86 18 68 C12.06 68 6.12 68 0 68 C0 45.56 0 23.12 0 0 Z " fill="#0A1375" transform="translate(34,45)"/>
<path d="M0 0 C5.53532183 4.04700325 9.10943421 8.9570083 11.12109375 15.55078125 C12.11283007 22.79902695 10.88125426 29.25568107 7.12109375 35.55078125 C1.89326619 41.70388803 -3.9575881 44.98852539 -11.921875 45.8984375 C-21.31521354 46.32791019 -28.28896417 44.02508605 -35.31640625 37.73828125 C-40.19250052 32.30965505 -41.42983807 26.15315776 -41.15625 18.99609375 C-40.28235762 11.29107078 -36.65372926 5.65884387 -30.87890625 0.55078125 C-21.87722776 -5.82018802 -9.32423378 -5.43530869 0 0 Z " fill="#0B1476" transform="translate(164.87890625,68.44921875)"/>
<path d="M0 0 C5.61 0 11.22 0 17 0 C17.04898437 2.05863281 17.09796875 4.11726563 17.1484375 6.23828125 C17.20406694 8.23398733 17.25976377 10.22969217 17.31738281 12.2253418 C17.3556435 13.61131907 17.39050156 14.99739465 17.421875 16.38354492 C17.46758699 18.3770164 17.52658925 20.37016914 17.5859375 22.36328125 C17.63306885 24.16212769 17.63306885 24.16212769 17.68115234 25.99731445 C17.78429494 29.17882706 17.78429494 29.17882706 20 32 C23.58357241 32.25015873 23.58357241 32.25015873 27 32 C28.05955248 28.48575476 28.19998141 25.14344126 28.31640625 21.484375 C28.35830078 20.23398438 28.40019531 18.98359375 28.44335938 17.6953125 C28.48267578 16.39335938 28.52199219 15.09140625 28.5625 13.75 C28.60568359 12.43257812 28.64886719 11.11515625 28.69335938 9.7578125 C28.79941854 6.50533146 28.90021153 3.25267947 29 0 C34.61 0 40.22 0 46 0 C46 15.51 46 31.02 46 47 C40.39 47 34.78 47 29 47 C29 45.68 29 44.36 29 43 C28.53851563 43.3609375 28.07703125 43.721875 27.6015625 44.09375 C22.85982853 47.46731567 19.23668253 48.75507901 13.39453125 48.4140625 C9.36853796 47.71788748 7.26028594 46.54302303 4 44 C0.20963754 38.58087292 -0.56485408 34.74787542 -0.390625 28.22265625 C-0.38496521 27.41130722 -0.37930542 26.59995819 -0.37347412 25.76402283 C-0.3512492 23.1962245 -0.30108235 20.62986985 -0.25 18.0625 C-0.2299169 16.31186924 -0.21166931 14.56121641 -0.1953125 12.81054688 C-0.15484662 8.53937359 -0.0765387 4.27128463 0 0 Z " fill="#0A1375" transform="translate(239,66)"/>
<path d="M0 0 C2.14327231 1.56965794 4.04264561 3.19321133 6 5 C2.50640535 8.59634744 -1.11098131 11.83451967 -5 15 C-5.86625 14.505 -6.7325 14.01 -7.625 13.5 C-11.23584826 11.89517855 -13.11710972 11.33908251 -17 12 C-20.63525215 14.60789828 -21.83397068 16.0702358 -22.625 20.5 C-21.83397068 24.9297642 -20.63525215 26.39210172 -17 29 C-11.73553919 29.89607844 -10.10200633 28.55100316 -5 26 C-1.37 28.97 2.26 31.94 6 35 C3.85964968 39.28070063 3.26912874 39.74765546 -0.8125 41.6875 C-1.66457031 42.10386719 -2.51664062 42.52023438 -3.39453125 42.94921875 C-10.05662772 45.63603127 -17.84220456 46.32835012 -24.7265625 44.12890625 C-31.38678634 41.06037412 -36.34025074 37.09214041 -39.1328125 30.20703125 C-40.97886687 23.3799563 -41.39188171 15.06811041 -38.4375 8.5 C-35.18827399 3.15708259 -30.02277336 -1.31491407 -24.140625 -3.52734375 C-15.62933407 -5.40666164 -7.40524889 -4.65430302 0 0 Z " fill="#0B1376" transform="translate(332,69)"/>
<path d="M0 0 C0 5.28 0 10.56 0 16 C3.3 16 6.6 16 10 16 C10 20.29 10 24.58 10 29 C6.7 29 3.4 29 0 29 C0.33 35.6 0.66 42.2 1 49 C2.98 49 4.96 49 7 49 C7.6708712 50.6232687 8.33657029 52.24867578 9 53.875 C9.37125 54.77992187 9.7425 55.68484375 10.125 56.6171875 C11 59 11 59 11 61 C4.62265942 63.88785234 -0.9987325 64.95277188 -8 64 C-13.07860297 61.64207719 -15.06076426 59.18619818 -17 54 C-17.35919821 49.86737664 -17.28268252 45.76910042 -17.1875 41.625 C-17.17396484 40.50738281 -17.16042969 39.38976562 -17.14648438 38.23828125 C-17.11127164 35.49168789 -17.06202096 32.74609711 -17 30 C-18.65 30 -20.3 30 -22 30 C-22 25.38 -22 20.76 -22 16 C-20.35 16 -18.7 16 -17 16 C-17 11.05 -17 6.1 -17 1 C-11.16592925 0.27074116 -5.96279173 0 0 0 Z " fill="#091275" transform="translate(362,50)"/>
<path d="M0 0 C9.66135799 5.28612168 16.12100011 12.25505669 19.66015625 22.73828125 C22.0247338 32.67589772 21.55594688 43.36171952 16.52734375 52.3828125 C15.1486647 54.12194772 13.73054487 55.83044738 12.27734375 57.5078125 C9.47986055 60.78546073 7.94836805 62.89669294 7.77734375 67.2578125 C8.07272677 70.35386419 8.47630817 71.31476506 10.40234375 73.8828125 C13.98150072 76.40927625 16.13970982 76.64607054 20.52734375 76.3828125 C23.8699958 75.17574371 24.47438941 74.46224401 26.52734375 71.3828125 C27.19658009 67.15728539 27.30823527 63.55414979 24.90234375 59.9453125 C22.19738492 58.16573432 19.64279576 57.23248123 16.52734375 56.3828125 C17.18734375 55.0628125 17.84734375 53.7428125 18.52734375 52.3828125 C23.97267888 52.77176501 26.65421336 54.5977078 30.52734375 58.3828125 C33.21838527 61.93009451 33.04875171 66.10395666 32.52734375 70.3828125 C30.52437707 76.05788475 26.91384196 79.68956339 21.52734375 82.3828125 C15.61608586 82.99432194 12.1154434 82.29791991 7.2265625 78.859375 C4.03115016 76.08267187 2.80922154 73.36666125 2.21875 69.2109375 C1.91146087 63.66110965 3.02190965 60.81072925 6.52734375 56.3828125 C7.58472441 54.8938479 8.62544349 53.39295994 9.65234375 51.8828125 C10.14992188 51.17125 10.6475 50.4596875 11.16015625 49.7265625 C15.468019 42.34165492 15.70531128 33.69503465 14.52734375 25.3828125 C12.15001933 17.8024471 8.30180295 11.63621516 1.52734375 7.3828125 C0.91761719 6.97289062 0.30789063 6.56296875 -0.3203125 6.140625 C-7.51578037 2.12003602 -16.48015027 2.23481597 -24.47265625 3.3828125 C-28.22775269 4.56298567 -31.24573417 6.15129179 -34.47265625 8.3828125 C-35.38015625 8.9396875 -36.28765625 9.4965625 -37.22265625 10.0703125 C-44.62776197 17.6811156 -46.77614589 25.2557531 -46.78735352 35.59790039 C-46.60606402 44.47035831 -43.2774081 50.27080305 -37.328125 56.6640625 C-32.78057249 60.87653219 -27.14672799 63.06686485 -21.47265625 65.3828125 C-21.47265625 66.7028125 -21.47265625 68.0228125 -21.47265625 69.3828125 C-30.77846964 69.03815274 -37.48391839 64.80409159 -43.84765625 58.1328125 C-51.26022745 49.26767684 -53.32796028 38.68837673 -52.47265625 27.3828125 C-50.53774503 17.89108265 -45.0586935 9.36719122 -37.47265625 3.3828125 C-25.95047383 -3.40422646 -12.58565018 -5.41277587 0 0 Z " fill="#FF6E36" transform="translate(497.47265625,34.6171875)"/>
<path d="M0 0 C3.41004803 2.77512277 6.10351486 5.32885334 6.9296875 9.76953125 C6.99867156 15.95510178 5.74992022 19.81355367 1.9296875 24.76953125 C-4.55887077 33.7804958 -7.39118833 41.51456847 -6.0703125 52.76953125 C-3.93139653 60.58039403 -0.6199277 66.90262351 5.9296875 71.76953125 C6.93902344 72.5275 6.93902344 72.5275 7.96875 73.30078125 C15.77510819 78.12945642 25.06735374 77.97418197 33.9296875 76.76953125 C41.83522975 74.68860136 47.42491411 69.4540337 51.9296875 62.76953125 C56.12923462 54.75005708 57.35631079 46.70043708 55.234375 37.87890625 C52.37839473 29.09496692 47.92015532 23.42928986 39.96484375 18.76953125 C37.00921303 17.31724437 34.13624533 16.50436742 30.9296875 15.76953125 C30.9296875 14.11953125 30.9296875 12.46953125 30.9296875 10.76953125 C39.79161926 11.50802556 46.81424845 15.32391592 52.9296875 21.76953125 C59.31159486 29.57463391 62.59088526 38.13759096 62.2109375 48.26953125 C61.08220262 58.3027302 56.6027792 67.57222176 49.3046875 74.58203125 C40.79509454 81.35759394 31.58232556 83.84751376 20.828125 83.2421875 C10.21144587 81.95499494 1.80458865 76.91439638 -5.0703125 68.76953125 C-10.89790133 59.42877278 -13.20507731 50.74772107 -12.0703125 39.76953125 C-10.2068817 32.94275673 -7.04945894 27.5369339 -2.7578125 21.95703125 C-0.15715229 18.55805161 0.87108582 17.13872184 1.5546875 12.83203125 C0.83945971 9.02161294 0.83945971 9.02161294 -1.0703125 5.76953125 C-4.73414672 3.7340678 -7.92315738 3.25113686 -12.0703125 3.76953125 C-14.77021912 5.56946899 -16.612199 6.85330425 -18.0703125 9.76953125 C-18.56511987 14.1403297 -18.62843633 16.05194346 -15.8828125 19.58203125 C-13.28231752 21.60463846 -11.19265746 22.78822284 -8.0703125 23.76953125 C-8.4003125 25.08953125 -8.7303125 26.40953125 -9.0703125 27.76953125 C-13.3226703 27.51939256 -15.54596031 27.20066527 -18.8828125 24.45703125 C-22.75774002 19.69640601 -23.51577844 16.31212934 -23.390625 10.2421875 C-22.7976576 5.66476845 -20.38723694 2.96299402 -17.0703125 -0.04296875 C-11.86103362 -3.13597808 -5.21207837 -3.09774469 0 0 Z " fill="#FF6D36" transform="translate(490.0703125,55.23046875)"/>
<path d="M0 0 C6.82409213 5.5929962 11.49364772 11.16965906 13 20 C13.8059742 30.22967252 12.31979769 37.37572798 5.875 45.4375 C5.17117188 46.26121094 4.46734375 47.08492187 3.7421875 47.93359375 C-0.22688183 52.64130155 0.57541793 58.10216901 1 64 C2.82849095 69.38923649 5.92216411 72.46108206 11 75 C17.37374058 75.60591318 22.43312451 75.22878778 28 72 C31.79337668 68.20662332 33.94695806 64.27681321 34.03515625 58.828125 C33.67364944 53.57305041 32.62993357 49.99292693 29 46 C26.10036896 44.11024046 23.11507025 42.50428606 20 41 C20.33 39.68 20.66 38.36 21 37 C26.87582466 37 29.96976645 40.04784524 34.0078125 43.90234375 C38.18130372 48.2967845 39.18879734 51.7991979 39.5 57.75 C39.30083346 64.72082903 37.38580213 70.72217334 32.28515625 75.66015625 C30.57755727 76.94178962 28.88162126 77.99559145 27 79 C26.236875 79.433125 25.47375 79.86625 24.6875 80.3125 C17.03639691 82.26975893 10.99435849 81.25359699 4.12890625 77.41796875 C-0.66239451 74.2266987 -3.58677953 69.55193755 -5 64 C-6.04939356 55.71891607 -5.05860008 50.53948559 0 44 C1.0929687 42.38146501 2.17626174 40.75635596 3.25 39.125 C3.75015625 38.38507813 4.2503125 37.64515625 4.765625 36.8828125 C8.42433897 31.30211588 7.58024591 24.42834232 7 18 C4.64601219 10.86966349 0.39167566 7.02057274 -5.9375 3.25 C-12.48202598 0.69220491 -20.46239074 0.65432118 -26.98828125 3.13671875 C-33.77381108 6.96677337 -37.4459297 11.64899935 -40 19 C-40.91500663 26.61796217 -40.35723045 33.54104662 -36 40 C-32.01420825 44.49881445 -27.58686553 46.94768205 -22 49 C-22 50.65 -22 52.3 -22 54 C-28.84288701 53.64908272 -34.14022635 49.94643346 -38.8046875 45.140625 C-43.99637565 38.68330144 -46.60823861 31.57480574 -46.2890625 23.26171875 C-45.07013721 13.72445199 -40.44410815 6.6202741 -33.12109375 0.546875 C-23.621935 -6.38068829 -9.88428435 -6.146943 0 0 Z " fill="#FF6D34" transform="translate(498,43)"/>
<path d="M0 0 C5.75033527 0.14025208 10.09637673 1.33252124 14.3984375 5.27734375 C20.010429 11.36544283 22.75301 16.19411792 22.56640625 24.56640625 C21.64774741 31.07278384 17.97863387 36.36400866 14 41.4375 C9.91390191 46.68955411 8.63257441 52.26178762 8.8125 58.8515625 C9.93034888 66.00113765 13.81646988 71.60935292 19.34375 76.09375 C25.63337505 80.03809114 31.96685064 79.92666821 39.1875 79.25 C45.85633674 77.60008039 50.59614254 74.09746663 54.1875 68.25 C57.14217202 62.02728165 58.61033589 55.59147362 56.42578125 48.92578125 C53.23599117 41.29802237 49.57081894 36.94165947 42.1875 33.25 C39.91764106 32.48959428 39.91764106 32.48959428 38.1875 32.25 C38.1875 30.6 38.1875 28.95 38.1875 27.25 C45.55627991 27.5570325 49.76630754 30.88274526 54.921875 35.95703125 C61.44992202 43.11526103 62.76955162 49.14216848 62.53515625 58.7421875 C61.74166982 66.74837639 58.44176597 74.04252855 52.1875 79.25 C43.76807721 84.37892053 36.05839461 86.46344331 26.1875 85.25 C18.6692844 82.7137345 12.4406056 79.0380692 8.1875 72.25 C7.77757812 71.62867187 7.36765625 71.00734375 6.9453125 70.3671875 C3.01414618 63.23686514 3.25997601 55.12185578 4.1875 47.25 C5.34810202 43.77313266 6.96265123 41.14345618 9.1875 38.25 C9.72632813 37.52039063 10.26515625 36.79078125 10.8203125 36.0390625 C11.8439669 34.66924477 12.88620751 33.31295915 13.953125 31.9765625 C17.0563813 27.63593185 16.84300878 22.34337857 16.1875 17.25 C14.44318315 12.588059 12.20987084 9.89148758 8 7.25 C1.77586228 5.61743929 -3.44342949 5.00085373 -9.25 8.0625 C-10.095625 8.784375 -10.94125 9.50625 -11.8125 10.25 C-12.67875 10.9615625 -12.67875 10.9615625 -13.5625 11.6875 C-16.75517225 15.67834031 -17.32882268 19.93069841 -17.1796875 24.91015625 C-16.51772162 29.12842816 -14.74036907 32.17506901 -11.8125 35.25 C-8.93927904 37.22954354 -5.98772284 38.81111906 -2.8125 40.25 C-3.1425 41.57 -3.4725 42.89 -3.8125 44.25 C-9.81413426 43.94991829 -13.61285285 41.31561586 -17.8125 37.25 C-22.36071552 31.77435505 -22.48214357 25.48504447 -22.25390625 18.59375 C-21.35094687 11.75363294 -18.05907265 8.03559352 -12.8125 3.8125 C-8.40782841 0.78017945 -5.30324018 0.34775345 0 0 Z " fill="#FF6C34" transform="translate(481.8125,45.75)"/>
<path d="M0 0 C0 5.94 0 11.88 0 18 C-3.36914062 18.63476562 -3.36914062 18.63476562 -6.73828125 19.26953125 C-9.38741439 20.12512347 -10.31143055 20.79679632 -12 23 C-12.50545868 25.70484875 -12.50545868 25.70484875 -12.51171875 28.76171875 C-12.54716797 29.87998047 -12.58261719 30.99824219 -12.61914062 32.15039062 C-12.64169922 33.31763672 -12.66425781 34.48488281 -12.6875 35.6875 C-12.72166016 36.86634766 -12.75582031 38.04519531 -12.79101562 39.25976562 C-12.87357239 42.17284019 -12.93846013 45.08640568 -13 48 C-18.94 48 -24.88 48 -31 48 C-31 32.49 -31 16.98 -31 1 C-25.06 1 -19.12 1 -13 1 C-12.67 2.32 -12.34 3.64 -12 5 C-11.32904297 4.45859375 -11.32904297 4.45859375 -10.64453125 3.90625 C-10.03996094 3.4421875 -9.43539063 2.978125 -8.8125 2.5 C-8.22082031 2.0359375 -7.62914062 1.571875 -7.01953125 1.09375 C-5 0 -5 0 0 0 Z " fill="#0F1878" transform="translate(410,65)"/>
<path d="M0 0 C0 5.94 0 11.88 0 18 C-1.588125 18.2475 -3.17625 18.495 -4.8125 18.75 C-8.66401381 19.33827968 -8.66401381 19.33827968 -11.62304688 21.69921875 C-13.30881227 24.51600121 -13.42477699 26.37161475 -13.51171875 29.640625 C-13.54716797 30.71054688 -13.58261719 31.78046875 -13.61914062 32.8828125 C-13.64169922 33.99398437 -13.66425781 35.10515625 -13.6875 36.25 C-13.72166016 37.37664062 -13.75582031 38.50328125 -13.79101562 39.6640625 C-13.87342274 42.44235954 -13.93838972 45.22116399 -14 48 C-19.61 48 -25.22 48 -31 48 C-31 32.49 -31 16.98 -31 1 C-25.39 1 -19.78 1 -14 1 C-13.67 2.65 -13.34 4.3 -13 6 C-12.05125 5.195625 -11.1025 4.39125 -10.125 3.5625 C-6.38981828 0.39571549 -5.3025431 0 0 0 Z " fill="#0A1375" transform="translate(122,65)"/>
<path d="M0 0 C3.50000436 2.71250338 4.82443266 4.74594758 5.4375 9.125 C4.86630493 14.18415631 2.71092161 17.52383255 -1 21 C-1.99 21 -2.98 21 -4 21 C-4 20.34 -4 19.68 -4 19 C-4.886875 19.103125 -5.77375 19.20625 -6.6875 19.3125 C-11.02481732 18.90331912 -12.23526717 17.23868703 -15 14 C-15.33 13.67 -15.66 13.34 -16 13 C-16.38301738 9.74435228 -16.67642942 7.13831966 -14.953125 4.23828125 C-10.28086216 -1.43714391 -6.87986671 -1.61591175 0 0 Z " fill="#FFFAF8" transform="translate(487,59)"/>
<path d="M0 0 C3.36297424 1.31564055 4.86786941 2.73149161 6.8671875 5.73046875 C7.56389172 8.8827698 7.59718393 11.58235916 6.8671875 14.73046875 C4.68559605 17.48616322 2.99541256 19.16635622 -0.1328125 20.73046875 C-5.40165126 21.32920043 -8.0174593 19.98446896 -12.1328125 16.73046875 C-13.90270291 13.19068792 -13.90423072 9.57470289 -13.1328125 5.73046875 C-9.90294625 0.78719784 -5.79646973 -1.31942988 0 0 Z " fill="#FFFCFC" transform="translate(518.1328125,91.26953125)"/>
<path d="M0 0 C2.4375 1.5 2.4375 1.5 4 4 C4.76795682 8.30689184 4.78412514 11.74539978 2.4375 15.5 C-0.84265499 17.51855692 -3.1477443 18 -7 18 C-9.875 16.625 -9.875 16.625 -12 14 C-12.97345699 10.94300349 -13.30764869 8.19612808 -13 5 C-9.37413423 -1.00143299 -6.68646899 -1.49869132 0 0 Z " fill="#F7F7FA" transform="translate(210,81)"/>
<path d="M0 0 C3.80915027 1.17737372 5.32439462 1.6815314 7.4375 5.0625 C8.05783544 8.19343832 8.07776301 10.93356251 7.4375 14.0625 C5.00329582 17.57061779 3.64407416 18.83626734 -0.5625 19.625 C-4.48759607 18.88904449 -6.02758106 18.19387045 -8.5625 15.0625 C-9.62917948 9.96136346 -9.34327121 6.26914642 -6.5 1.875 C-3.5625 0.0625 -3.5625 0.0625 0 0 Z " fill="#F7F7FA" transform="translate(150.5625,79.9375)"/>
<path d="M0 0 C8.02217295 -0.4789357 8.02217295 -0.4789357 12.0625 1.5 C14.06317741 4.08151924 14.40001074 4.9299572 14.625 8.0625 C14 12 14 12 12.0625 14 C7.87421283 15.36760397 4.39895333 15.19696806 0 15 C0 10.05 0 5.1 0 0 Z " fill="#FCFCFD" transform="translate(52,61)"/>
<path d="M0 0 C0.13277344 0.90363281 0.26554687 1.80726562 0.40234375 2.73828125 C0.57894531 3.91777344 0.75554687 5.09726563 0.9375 6.3125 C1.11152344 7.48425781 1.28554688 8.65601562 1.46484375 9.86328125 C1.92093031 13.01641403 1.92093031 13.01641403 3 16 C6.32908899 18.17671203 10.19311539 18.97506953 14 20 C14.33 18.68 14.66 17.36 15 16 C14.01 15.67 13.02 15.34 12 15 C13.32 15 14.64 15 16 15 C16 15.66 16 16.32 16 17 C16.66 17.33 17.32 17.66 18 18 C17.38080922 19.46080933 16.75443308 20.91857455 16.125 22.375 C15.77695312 23.18710938 15.42890625 23.99921875 15.0703125 24.8359375 C14 27 14 27 12 29 C11.835 28.113125 11.67 27.22625 11.5 26.3125 C9.8902186 22.75756607 9.40807246 22.40207671 6.1875 20.625 C1.59475614 17.99818475 -1.11794465 14.9834705 -3 10 C-3.36542559 6.94371327 -3.31849886 4.05758904 -3 1 C-1 0 -1 0 0 0 Z " fill="#FFE4DA" transform="translate(467,63)"/>
<path d="M0 0 C0.66 0.33 1.32 0.66 2 1 C1.39443624 4.32321576 0.23528183 6.26077027 -1.875 8.875 C-7.07068541 15.32391607 -8.43986143 20.26060925 -8.1875 28.375 C-8.17396484 29.20644531 -8.16042969 30.03789063 -8.14648438 30.89453125 C-8.11139059 32.92997066 -8.05759228 34.96507291 -8 37 C-8.99 37 -9.98 37 -11 37 C-13.58613316 29.24160051 -12.35371225 21.06856639 -9.3515625 13.6171875 C-7.47115932 9.97594436 -5.12644624 6.90133784 -2.48828125 3.77734375 C-0.93352508 2.05984087 -0.93352508 2.05984087 0 0 Z " fill="#FFEEE8" transform="translate(495,74)"/>
<path d="M0 0 C0 0.66 0 1.32 0 2 C-1.5159375 2.309375 -1.5159375 2.309375 -3.0625 2.625 C-8.72060748 4.25471859 -12.50809885 7.91133838 -15.875 12.625 C-17.55289947 17.6586984 -17.75240913 22.72375311 -18 28 C-18.33 28 -18.66 28 -19 28 C-19.2165625 26.39125 -19.2165625 26.39125 -19.4375 24.75 C-19.85887156 21.25777579 -19.85887156 21.25777579 -20.63671875 19.01171875 C-21.32507816 15.19983599 -18.97535797 12.14547447 -17 9 C-12.97503827 4.19240682 -6.63721705 -2.39471974 0 0 Z " fill="#FFECE5" transform="translate(478,45)"/>
<path d="M0 0 C4.28664078 0.739076 5.86787167 2.60860564 8.53515625 5.88671875 C10.90740189 9.30907845 12.81800916 12.99753448 14 17 C13 19 13 19 11 20 C10.79697266 19.1646875 10.79697266 19.1646875 10.58984375 18.3125 C8.97294014 12.58072193 6.6754282 8.98366689 2.5234375 4.7265625 C1 3 1 3 0 0 Z " fill="#FFEDE6" transform="translate(499,43)"/>
<path d="M0 0 C0.33 0 0.66 0 1 0 C0.72980587 6.07936783 0.03723846 10.17774296 -4 15 C-8.42105263 19 -8.42105263 19 -11 19 C-11 18.01 -11 17.02 -11 16 C-9.5195636 14.78275229 -8.03600725 13.56880097 -6.52734375 12.38671875 C-3.02338932 9.20537905 -1.65506149 4.32862237 0 0 Z " fill="#FFE3D8" transform="translate(532,99)"/>
<path d="M0 0 C-0.66 2.97 -1.32 5.94 -2 9 C-3.58624235 8.57316761 -5.1689098 8.13303842 -6.75 7.6875 C-7.63171875 7.44386719 -8.5134375 7.20023438 -9.421875 6.94921875 C-12.05772505 5.97874669 -13.85407326 4.78994356 -16 3 C-15.67 2.01 -15.34 1.02 -15 0 C-14.31292969 0.34933594 -13.62585938 0.69867188 -12.91796875 1.05859375 C-12.01691406 1.51363281 -11.11585938 1.96867187 -10.1875 2.4375 C-8.84751953 3.11619141 -8.84751953 3.11619141 -7.48046875 3.80859375 C-4.96000522 5.0831605 -4.96000522 5.0831605 -2 6 C-2 4.35 -2 2.7 -2 1 C-3.32 0.67 -4.64 0.34 -6 0 C-4 -1 -4 -1 0 0 Z " fill="#FFEAE2" transform="translate(478,91)"/>
<path d="M0 0 C0.66 0 1.32 0 2 0 C1.38756115 3.37219417 0.15616473 5.43241406 -1.9375 8.125 C-2.46214844 8.80820313 -2.98679687 9.49140625 -3.52734375 10.1953125 C-5 12 -5 12 -7 14 C-7.66 14 -8.32 14 -9 14 C-7.65686815 10.21908383 -5.97035316 7.34348084 -3.5 4.1875 C-2.8915625 3.39730469 -2.283125 2.60710937 -1.65625 1.79296875 C-0.83640625 0.90544922 -0.83640625 0.90544922 0 0 Z " fill="#FFEAE2" transform="translate(507,83)"/>
<path d="M0 0 C6.51791392 -0.3540919 11.17521449 -0.03901852 17 3 C17 3.66 17 4.32 17 5 C16.45472656 4.86722656 15.90945313 4.73445313 15.34765625 4.59765625 C9.90097013 3.32210753 4.56879648 2.53036157 -1 2 C-0.67 1.34 -0.34 0.68 0 0 Z " fill="#FFFCFB" transform="translate(478,44)"/>
<path d="M0 0 C0.99 0.33 1.98 0.66 3 1 C3.33 5.62 3.66 10.24 4 15 C3.01 15 2.02 15 1 15 C-0.09506492 11.71480525 -0.09960608 9.26336585 -0.0625 5.8125 C-0.05347656 4.72582031 -0.04445313 3.63914062 -0.03515625 2.51953125 C-0.02355469 1.68808594 -0.01195312 0.85664062 0 0 Z " fill="#FFE0D4" transform="translate(483,96)"/>
<path d="M0 0 C2.37948772 0.17625835 3.70225849 0.69719773 5.37890625 2.40234375 C6.62115486 3.90649092 7.81376056 5.45129851 9 7 C5 7 5 7 2.25 4.625 C0 2 0 2 0 0 Z " fill="#FFE5DC" transform="translate(499,43)"/>
<path d="M0 0 C3 3 3 3 3.29296875 5.69921875 C3.25816406 6.68535156 3.22335937 7.67148438 3.1875 8.6875 C3.16042969 9.68136719 3.13335938 10.67523438 3.10546875 11.69921875 C3.07066406 12.45847656 3.03585937 13.21773437 3 14 C2.01 13.67 1.02 13.34 0 13 C0 8.71 0 4.42 0 0 Z " fill="#FFDBCE" transform="translate(544,93)"/>
<path d="M0 0 C0.99 0.33 1.98 0.66 3 1 C2.67 1.66 2.34 2.32 2 3 C2.66 3.66 3.32 4.32 4 5 C2.948125 4.8453125 2.948125 4.8453125 1.875 4.6875 C-2.30732311 5.14210034 -3.95201113 7.16466151 -7 10 C-5.33248852 6.05860922 -2.77289351 3.2107188 0 0 Z " fill="#FFE3D8" transform="translate(513,87)"/>
<path d="M0 0 C0.99 0 1.98 0 3 0 C3 0.66 3 1.32 3 2 C3.61875 2.309375 4.2375 2.61875 4.875 2.9375 C6.25 3.625 7.625 4.3125 9 5 C8.67 5.99 8.34 6.98 8 8 C1.42857143 4 1.42857143 4 0 0 Z " fill="#FFEDE6" transform="translate(467,77)"/>
<path d="M0 0 C2.97 0.99 5.94 1.98 9 3 C9 3.99 9 4.98 9 6 C6.03 5.01 3.06 4.02 0 3 C0 2.01 0 1.02 0 0 Z " fill="#FFEBE3" transform="translate(499,127)"/>
<path d="M0 0 C0.99 0 1.98 0 3 0 C3.33 3.63 3.66 7.26 4 11 C3.01 11 2.02 11 1 11 C-0.20272819 8.59454362 -0.10071472 7.05003047 -0.0625 4.375 C-0.05347656 3.55773437 -0.04445313 2.74046875 -0.03515625 1.8984375 C-0.02355469 1.27195312 -0.01195312 0.64546875 0 0 Z " fill="#FFD6C7" transform="translate(490,98)"/>
<path d="M0 0 C0 3.96 0 7.92 0 12 C-0.33 12 -0.66 12 -1 12 C-1.144375 10.9275 -1.28875 9.855 -1.4375 8.75 C-1.83749442 6.08337051 -2.27591924 3.58600271 -3 1 C-1 0 -1 0 0 0 Z " fill="#FFCCB9" transform="translate(460,61)"/>
<path d="M0 0 C5.75 0.875 5.75 0.875 8 2 C8 2.66 8 3.32 8 4 C3.545 3.01 3.545 3.01 -1 2 C-0.67 1.34 -0.34 0.68 0 0 Z " fill="#FFF3EE" transform="translate(487,45)"/>
</svg>
